<?xml version="1.0" encoding="utf-8"?>
<!-- Generator: Adobe Illustrator 16.0.0, SVG Export Plug-In . SVG Version: 6.00 Build 0)  -->
<!DOCTYPE svg PUBLIC "-//W3C//DTD SVG 1.1//EN" "http://www.w3.org/Graphics/SVG/1.1/DTD/svg11.dtd">
<svg version="1.1" id="Layer_1" xmlns="http://www.w3.org/2000/svg" xmlns:xlink="http://www.w3.org/1999/xlink" x="0px" y="0px"
	 width="60px" height="60px" viewBox="0 0 60 60" enable-background="new 0 0 60 60" xml:space="preserve">
<path id="Instergram" d="M29.999,58.346c15.655,0,28.347-12.691,28.347-28.347S45.654,1.652,29.999,1.652S1.652,14.344,1.652,29.999
	S14.344,58.346,29.999,58.346z M41.533,44.413H18.467c-0.061-0.01-0.123-0.021-0.185-0.028c-1.268-0.163-2.333-1.132-2.616-2.381
	c-0.034-0.146-0.055-0.294-0.081-0.439V18.435c0.009-0.054,0.021-0.107,0.028-0.161c0.181-1.294,1.126-2.323,2.403-2.614
	c0.138-0.032,0.278-0.05,0.418-0.075h23.128c0.054,0.009,0.106,0.021,0.162,0.028c1.309,0.179,2.374,1.182,2.626,2.474
	c0.024,0.126,0.042,0.253,0.062,0.379v23.066c-0.021,0.128-0.039,0.258-0.063,0.387c-0.229,1.184-1.192,2.166-2.368,2.416
	C41.832,44.365,41.682,44.388,41.533,44.413z M18.704,27.274v0.078c0,4.266,0,8.533,0,12.798c0,0.614,0.532,1.143,1.145,1.143
	c6.765,0,13.529,0,20.295,0c0.619,0,1.148-0.527,1.148-1.146c0-4.261,0-8.521,0-12.783v-0.089H38.54
	c0.39,1.242,0.509,2.505,0.356,3.792c-0.154,1.288-0.568,2.486-1.244,3.593c-0.677,1.109-1.553,2.027-2.626,2.758
	c-2.783,1.895-6.447,2.062-9.398,0.404c-1.494-0.838-2.666-2.005-3.482-3.508c-1.219-2.243-1.414-4.598-0.698-7.042
	C20.536,27.274,19.625,27.274,18.704,27.274L18.704,27.274z M30,24.157c-3.197-0.002-5.797,2.57-5.842,5.753
	c-0.046,3.268,2.571,5.86,5.707,5.927c3.265,0.07,5.905-2.538,5.973-5.71C35.908,26.857,33.271,24.155,30,24.157L30,24.157z
	 M38.76,22.986v-0.005c0.474,0,0.95,0.009,1.425-0.002c0.61-0.016,1.107-0.539,1.107-1.15c0.001-0.91,0.001-1.82,0-2.73
	c0-0.653-0.517-1.172-1.168-1.173c-0.909,0-1.815,0-2.724,0c-0.651,0.001-1.168,0.522-1.169,1.174c0,0.903-0.003,1.805,0.004,2.708
	c0.001,0.135,0.025,0.274,0.068,0.402c0.163,0.48,0.603,0.775,1.142,0.777C37.884,22.988,38.321,22.986,38.76,22.986L38.76,22.986z"
	/>
</svg>
