<?xml version="1.0" encoding="utf-8"?>
<!-- Generator: Adobe Illustrator 16.0.0, SVG Export Plug-In . SVG Version: 6.00 Build 0)  -->
<!DOCTYPE svg PUBLIC "-//W3C//DTD SVG 1.1//EN" "http://www.w3.org/Graphics/SVG/1.1/DTD/svg11.dtd">
<svg version="1.1" id="Layer_1" xmlns="http://www.w3.org/2000/svg" xmlns:xlink="http://www.w3.org/1999/xlink" x="0px" y="0px"
	 width="1110.035px" height="82.607px" viewBox="0 0 1110.035 82.607" enable-background="new 0 0 1110.035 82.607"
	 xml:space="preserve">
<g>
	<path d="M11.045,40.408c0-5.088,0.667-9.581,2-13.476c1.333-3.896,3.114-7.238,5.343-10.029c2.228-2.79,4.782-5.14,7.66-7.054
		c2.877-1.912,5.843-3.456,8.896-4.632c3.053-1.176,6.054-2.07,9.002-2.685c2.948-0.614,5.659-1.053,8.133-1.316
		c2.474-0.263,4.553-0.395,6.237-0.395c1.685,0,2.738,0,3.159,0c1.369,0,3.369,0.036,6.001,0.105
		c2.632,0.071,5.58,0.342,8.844,0.816c3.264,0.474,6.659,1.229,10.186,2.264c3.527,1.036,6.887,2.562,10.082,4.58
		c3.193,2.019,6.071,4.589,8.633,7.712c2.562,3.124,4.492,6.984,5.791,11.581c0.176,0.667,0.264,1.211,0.264,1.632
		c0,0.105-0.019,0.229-0.053,0.368c-0.071,0.492-0.22,0.86-0.448,1.105c-0.229,0.246-0.5,0.404-0.816,0.474
		c-0.315,0.071-0.614,0.105-0.895,0.105L79.48,33.302c-0.632,0.071-1.141-0.018-1.527-0.263c-0.387-0.245-0.737-0.527-1.053-0.842
		c-0.281-0.28-0.492-0.632-0.632-1.053c-0.808-2.14-1.869-3.808-3.185-5.001c-1.316-1.192-2.711-2.096-4.185-2.711
		c-1.474-0.613-2.931-0.974-4.37-1.079c-1.439-0.105-2.632-0.158-3.58-0.158c-1.088,0-2.439,0.123-4.053,0.368
		c-1.615,0.246-3.264,0.799-4.949,1.659c-1.684,0.86-3.229,2.141-4.632,3.842c-1.404,1.703-2.421,4.027-3.053,6.975
		c-0.421,2.071-0.632,4.247-0.632,6.528c0,0.703,0.018,1.421,0.053,2.158c0.175,3.053,0.886,5.853,2.132,8.397
		c1.245,2.544,3.097,4.658,5.553,6.343c2.456,1.685,5.65,2.526,9.581,2.526c3.72,0,6.914-0.57,9.581-1.71
		c2.667-1.14,4.719-3.554,6.159-7.239c0.14-0.421,0.369-0.771,0.685-1.053c0.211-0.28,0.508-0.535,0.895-0.763
		c0.386-0.228,0.912-0.342,1.579-0.342l28.006,1.948c0.561,0.07,1.114,0.447,1.658,1.131c0.543,0.685,0.64,1.571,0.289,2.658
		c-1.298,4.317-3.132,7.949-5.501,10.897c-2.369,2.948-5.027,5.387-7.975,7.317s-6.089,3.439-9.423,4.527
		c-3.334,1.088-6.642,1.878-9.923,2.369c-3.282,0.491-6.414,0.79-9.396,0.895c-2.983,0.105-5.616,0.158-7.896,0.158
		c-1.65,0-4.01-0.124-7.08-0.369c-3.072-0.246-6.396-0.816-9.976-1.711c-3.58-0.895-7.238-2.245-10.976-4.053
		c-3.737-1.807-7.133-4.238-10.186-7.291s-5.554-6.86-7.501-11.423C12.019,52.376,11.045,46.866,11.045,40.408z"/>
	<path d="M118.589,80.101c-0.351-0.211-0.526-0.561-0.526-1.053c0-0.597,0.263-1.403,0.789-2.422l34.375-72.225
		c0.07-0.07,0.192-0.245,0.368-0.526c0.176-0.28,0.448-0.57,0.816-0.869c0.369-0.298,0.876-0.57,1.526-0.816
		c0.649-0.245,1.43-0.369,2.343-0.369h28.269c0.947,0,1.719,0.124,2.316,0.369c0.597,0.246,1.096,0.518,1.5,0.816
		c0.403,0.299,0.692,0.588,0.869,0.869c0.175,0.281,0.263,0.456,0.263,0.526l33.534,72.225c0.491,1.088,0.736,1.921,0.736,2.5
		s-0.157,0.992-0.474,1.237c-0.315,0.246-0.746,0.387-1.29,0.421c-0.544,0.035-1.132,0.052-1.764,0.052H198.71
		c-1.86,0-3.115-0.307-3.764-0.921c-0.649-0.614-1.044-1.132-1.184-1.553l-4.317-10.371c-0.21-0.491-0.571-0.921-1.079-1.29
		c-0.509-0.368-1.15-0.553-1.921-0.553h-28.9c-0.808,0-1.439,0.185-1.896,0.553c-0.457,0.369-0.79,0.799-1,1.29l-4.422,10.371
		c-0.141,0.141-0.553,0.588-1.237,1.342c-0.685,0.755-1.957,1.132-3.817,1.132h-23.426
		C120.414,80.837,119.361,80.593,118.589,80.101z M164.966,43.725c-0.071,0.211-0.105,0.387-0.105,0.527
		c0,0.351,0.228,0.544,0.685,0.579h13.897c0.421,0,0.632-0.175,0.632-0.527c0-0.14-0.036-0.333-0.105-0.579l-7.106-17.003
		c-0.141-0.245-0.264-0.368-0.369-0.368h-0.052c-0.141,0.035-0.282,0.158-0.422,0.368L164.966,43.725z"/>
	<path d="M240.139,78.153V4.506c0-0.631,0.123-1.149,0.369-1.553c0.245-0.403,0.543-0.675,0.895-0.816
		c0.35-0.211,0.824-0.316,1.421-0.316h28.11c0.562,0,1.229,0.088,2.001,0.263c0.771,0.176,1.702,0.913,2.79,2.211l31.111,37.744
		c0.351,0.421,0.675,0.579,0.974,0.474c0.298-0.105,0.448-0.333,0.448-0.684V4.612c0-0.632,0.14-1.149,0.421-1.553
		c0.281-0.403,0.614-0.675,1-0.816c0.35-0.211,0.807-0.351,1.368-0.421h25.374c0.491,0,0.913,0.105,1.264,0.316
		c0.35,0.141,0.675,0.413,0.974,0.816c0.298,0.404,0.448,0.921,0.448,1.553v73.857c0,0.702-0.15,1.22-0.448,1.553
		c-0.298,0.334-0.624,0.571-0.974,0.71c-0.281,0.141-0.579,0.21-0.895,0.21c-0.105,0-0.229,0-0.369,0h-28.058
		c-0.562,0-1.272-0.105-2.132-0.316c-0.86-0.21-1.869-0.93-3.027-2.158L271.83,40.725c-0.141-0.211-0.361-0.316-0.658-0.316
		c-0.299,0-0.448,0.246-0.448,0.737l0.105,37.007c0,0.703-0.141,1.237-0.421,1.605c-0.281,0.368-0.597,0.624-0.947,0.763
		c-0.351,0.211-0.79,0.316-1.316,0.316h-25.321c-0.562,0-1.036-0.105-1.421-0.316c-0.352-0.14-0.65-0.395-0.895-0.763
		C240.262,79.39,240.139,78.855,240.139,78.153z"/>
	<path d="M409.594,78.258V4.612c0-0.632,0.123-1.149,0.368-1.553c0.245-0.403,0.544-0.675,0.896-0.816
		c0.35-0.211,0.824-0.316,1.421-0.316h23.689h41.64c6.036,0,11.028,0.606,14.977,1.816c3.948,1.211,7.106,2.931,9.476,5.159
		c2.369,2.229,4.044,4.896,5.027,8.001c0.982,3.106,1.474,6.554,1.474,10.344c0,3.826-0.562,7.248-1.685,10.266
		c-1.124,3.019-2.904,5.589-5.343,7.712c-2.44,2.124-5.633,3.756-9.581,4.896c-3.948,1.141-8.73,1.711-14.345,1.711h-33.849
		c-0.492,0-0.93,0.105-1.316,0.315c-0.352,0.141-0.65,0.413-0.895,0.816c-0.246,0.404-0.369,0.957-0.369,1.658l-0.105,23.636
		c0,0.703-0.149,1.237-0.447,1.606c-0.299,0.368-0.624,0.624-0.974,0.763c-0.352,0.21-0.772,0.316-1.264,0.316h-26.11
		c-0.562,0-1.035-0.105-1.421-0.316c-0.352-0.14-0.65-0.395-0.896-0.763C409.717,79.495,409.594,78.961,409.594,78.258z
		 M440.969,27.774c0,0.632,0.21,1.036,0.632,1.211c0.14,0.105,0.297,0.158,0.474,0.158c0.07,0,0.158-0.018,0.263-0.053h27.637
		c1.369,0,2.64-0.105,3.817-0.316c1.175-0.21,1.763-0.929,1.763-2.159c0-0.631-0.193-1.131-0.579-1.5
		c-0.387-0.368-0.851-0.623-1.395-0.763c-0.545-0.14-1.158-0.228-1.842-0.263c-0.685-0.035-1.273-0.053-1.764-0.053h-27.637
		c-0.281,0-0.526,0.071-0.737,0.21c-0.421,0.282-0.632,0.703-0.632,1.264V27.774z"/>
	<path d="M519.563,78.153V4.506c0-0.631,0.123-1.149,0.368-1.553c0.245-0.403,0.544-0.675,0.896-0.816
		c0.35-0.211,0.789-0.316,1.315-0.316h74.699c0.491,0,0.93,0.105,1.316,0.316c0.351,0.141,0.666,0.413,0.947,0.816
		c0.28,0.404,0.421,0.921,0.421,1.553v16.845c0,0.703-0.141,1.229-0.421,1.58c-0.281,0.351-0.597,0.615-0.947,0.79
		c-0.352,0.211-0.79,0.316-1.316,0.316h-45.482c-0.211,0-0.439,0.071-0.685,0.21c-0.421,0.282-0.632,0.667-0.632,1.158v2.369
		c0,0.632,0.211,1.036,0.632,1.211c0.211,0.071,0.474,0.105,0.79,0.105h34.901c0.561,0,1.105,0.141,1.632,0.421
		c0.351,0.21,0.71,0.535,1.08,0.974c0.368,0.439,0.552,1.045,0.552,1.816l-0.105,16.845c0,0.808-0.184,1.421-0.552,1.842
		s-0.729,0.737-1.08,0.948c-0.492,0.281-1.035,0.421-1.632,0.421h-34.901c-0.281,0-0.545,0.07-0.79,0.21
		c-0.421,0.281-0.632,0.72-0.632,1.316v2.263c0,0.562,0.245,0.966,0.737,1.211c0.211,0.141,0.474,0.211,0.79,0.211l45.377,0.105
		c0.491,0,0.93,0.105,1.316,0.316c0.351,0.141,0.666,0.387,0.947,0.737c0.28,0.352,0.421,0.896,0.421,1.632v17.793
		c0,0.703-0.141,1.237-0.421,1.605c-0.281,0.368-0.597,0.624-0.947,0.763c-0.352,0.211-0.79,0.316-1.316,0.316h-74.699
		c-0.491,0-0.93-0.105-1.315-0.316c-0.352-0.14-0.65-0.395-0.896-0.763C519.686,79.39,519.563,78.855,519.563,78.153z"/>
	<path d="M619.923,78.258V4.612c0-0.632,0.123-1.149,0.368-1.553c0.245-0.403,0.544-0.675,0.896-0.816
		c0.35-0.211,0.823-0.316,1.421-0.316h23.689h41.64c6.036,0,11.028,0.606,14.977,1.816c3.948,1.211,7.106,2.931,9.476,5.159
		c2.369,2.229,4.044,4.896,5.027,8.001c0.982,3.106,1.474,6.554,1.474,10.344c0,3.826-0.562,7.248-1.685,10.266
		c-1.124,3.019-2.904,5.589-5.343,7.712c-2.44,2.124-5.633,3.756-9.581,4.896c-3.948,1.141-8.73,1.711-14.345,1.711h-33.849
		c-0.492,0-0.93,0.105-1.316,0.315c-0.352,0.141-0.65,0.413-0.895,0.816c-0.246,0.404-0.369,0.957-0.369,1.658l-0.105,23.636
		c0,0.703-0.149,1.237-0.447,1.606c-0.299,0.368-0.624,0.624-0.974,0.763c-0.352,0.21-0.772,0.316-1.264,0.316h-26.11
		c-0.562,0-1.035-0.105-1.421-0.316c-0.352-0.14-0.65-0.395-0.896-0.763C620.045,79.495,619.923,78.961,619.923,78.258z
		 M651.297,27.774c0,0.632,0.21,1.036,0.632,1.211c0.14,0.105,0.297,0.158,0.474,0.158c0.07,0,0.158-0.018,0.263-0.053h27.637
		c1.369,0,2.64-0.105,3.817-0.316c1.175-0.21,1.763-0.929,1.763-2.159c0-0.631-0.193-1.131-0.579-1.5
		c-0.387-0.368-0.851-0.623-1.395-0.763c-0.545-0.14-1.158-0.228-1.842-0.263c-0.685-0.035-1.273-0.053-1.764-0.053h-27.637
		c-0.281,0-0.526,0.071-0.737,0.21c-0.421,0.282-0.632,0.703-0.632,1.264V27.774z"/>
	<path d="M784.324,78.153V4.506c0-0.631,0.122-1.149,0.368-1.553c0.245-0.403,0.544-0.675,0.895-0.816
		c0.35-0.211,0.824-0.316,1.421-0.316h70.855c4.106,0,7.626,0.5,10.555,1.5c2.932,1,5.387,2.29,7.371,3.869
		c1.982,1.58,3.545,3.343,4.684,5.291c1.141,1.948,2.018,3.869,2.633,5.764c0.613,1.895,0.99,3.641,1.131,5.238
		c0.143,1.598,0.211,2.852,0.211,3.764c-0.068,1.931-0.297,3.922-0.684,5.975s-1.141,4.019-2.262,5.896
		c-1.127,1.878-2.721,3.589-4.793,5.133c-2.07,1.545-4.809,2.772-8.211,3.685c-1.02,0.352-1.633,0.948-1.843,1.79
		c-0.211,0.842-0.124,1.544,0.263,2.106c0.07,0.141,0.332,0.605,0.791,1.395c0.454,0.79,1.026,1.782,1.709,2.974
		c0.688,1.194,1.473,2.527,2.371,4.001c0.893,1.474,1.779,2.966,2.656,4.474c2.07,3.51,4.439,7.494,7.107,11.95
		c0.561,0.878,0.842,1.598,0.842,2.158c0,0.562-0.156,0.993-0.475,1.29c-0.314,0.298-0.762,0.5-1.342,0.605
		c-0.578,0.105-1.184,0.158-1.814,0.158h-25.006c-1.859,0-3.133-0.376-3.816-1.132c-0.684-0.754-1.079-1.202-1.185-1.342
		l-15.056-25.215c-0.561-1.018-1.062-1.745-1.5-2.185c-0.439-0.438-1.309-0.659-2.605-0.659l-11.213,0.105
		c-0.493,0-0.93,0.124-1.316,0.369c-0.352,0.141-0.65,0.386-0.896,0.736c-0.245,0.352-0.368,0.895-0.368,1.632v25.005
		c0,0.703-0.148,1.237-0.447,1.605s-0.623,0.624-0.973,0.763c-0.353,0.211-0.773,0.316-1.266,0.316h-26.109
		c-0.562,0-1.036-0.105-1.421-0.316c-0.351-0.14-0.65-0.395-0.895-0.763C784.446,79.39,784.324,78.855,784.324,78.153z
		 M815.698,27.774c0,0.632,0.211,1.036,0.633,1.211c0.139,0.105,0.297,0.158,0.473,0.158c0.07,0,0.159-0.018,0.264-0.053h27.637
		c1.369,0,2.641-0.105,3.816-0.316s1.764-0.929,1.764-2.159c0-0.631-0.193-1.131-0.578-1.5c-0.387-0.368-0.852-0.623-1.395-0.763
		c-0.545-0.14-1.158-0.228-1.844-0.263c-0.684-0.035-1.273-0.053-1.764-0.053h-27.637c-0.281,0-0.526,0.071-0.736,0.21
		c-0.422,0.282-0.633,0.703-0.633,1.264V27.774z"/>
	<path d="M906.372,78.153V4.506c0-0.631,0.121-1.149,0.367-1.553c0.246-0.403,0.543-0.675,0.895-0.816
		c0.352-0.211,0.789-0.316,1.318-0.316h74.697c0.492,0,0.932,0.105,1.318,0.316c0.35,0.141,0.664,0.413,0.947,0.816
		c0.279,0.404,0.418,0.921,0.418,1.553v16.845c0,0.703-0.139,1.229-0.418,1.58c-0.283,0.351-0.598,0.615-0.947,0.79
		c-0.354,0.211-0.791,0.316-1.318,0.316h-45.48c-0.211,0-0.441,0.071-0.686,0.21c-0.422,0.282-0.633,0.667-0.633,1.158v2.369
		c0,0.632,0.211,1.036,0.633,1.211c0.211,0.071,0.475,0.105,0.789,0.105h34.902c0.561,0,1.105,0.141,1.631,0.421
		c0.35,0.21,0.711,0.535,1.078,0.974c0.371,0.439,0.555,1.045,0.555,1.816l-0.105,16.845c0,0.808-0.184,1.421-0.553,1.842
		s-0.729,0.737-1.078,0.948c-0.494,0.281-1.037,0.421-1.633,0.421h-34.9c-0.283,0-0.547,0.07-0.791,0.21
		c-0.422,0.281-0.633,0.72-0.633,1.316v2.263c0,0.562,0.246,0.966,0.738,1.211c0.211,0.141,0.475,0.211,0.789,0.211l45.377,0.105
		c0.492,0,0.932,0.105,1.318,0.316c0.35,0.141,0.664,0.387,0.947,0.737c0.279,0.352,0.418,0.896,0.418,1.632v17.793
		c0,0.703-0.139,1.237-0.418,1.605c-0.283,0.368-0.598,0.624-0.947,0.763c-0.354,0.211-0.791,0.316-1.318,0.316h-74.697
		c-0.494,0-0.932-0.105-1.318-0.316c-0.352-0.14-0.648-0.395-0.895-0.763S906.372,78.855,906.372,78.153z"/>
	<path d="M997.497,3.559c0.176-1.087,1.016-1.632,2.527-1.632h29.637c0.561,0,1.264,0.255,2.105,0.763
		c0.842,0.51,1.754,1.624,2.736,3.343c2.213,3.826,4.264,7.194,6.16,10.107c0.807,1.299,1.588,2.562,2.342,3.791
		c0.754,1.229,1.422,2.326,2.002,3.29c0.578,0.966,1.061,1.747,1.447,2.342l0.58,0.948c0.42,0.808,1.025,1.203,1.814,1.184
		c0.791-0.018,1.449-0.412,1.975-1.184l12.686-21.057c1.018-1.719,1.889-2.737,2.607-3.054c0.719-0.315,1.359-0.474,1.922-0.474
		h28.162c1.65,0,2.562,0.51,2.738,1.527c0.033,0.176,0.053,0.351,0.053,0.526c0,0.842-0.316,1.772-0.947,2.79l-32.377,47.852
		c-0.35,0.492-0.613,0.887-0.789,1.185s-0.297,0.571-0.367,0.815c-0.07,0.246-0.123,0.553-0.158,0.921s-0.053,0.834-0.053,1.395
		v19.214c0,0.703-0.15,1.237-0.447,1.605c-0.299,0.368-0.623,0.624-0.973,0.763c-0.354,0.211-0.773,0.316-1.266,0.316h-27.215
		c-0.562,0-1.02-0.105-1.369-0.316c-0.352-0.14-0.658-0.395-0.922-0.763c-0.262-0.368-0.395-0.903-0.395-1.605v-19.53
		c0-0.561,0-1.008,0-1.342c0-0.333-0.053-0.623-0.156-0.869c-0.107-0.245-0.248-0.508-0.422-0.79
		c-0.176-0.28-0.404-0.684-0.686-1.21L998.286,6.77c-0.561-0.877-0.842-1.737-0.842-2.58C997.444,3.98,997.462,3.77,997.497,3.559z"
		/>
</g>
</svg>
