<?xml version="1.0" encoding="utf-8"?>
<!-- Generator: Adobe Illustrator 16.0.0, SVG Export Plug-In . SVG Version: 6.00 Build 0)  -->
<!DOCTYPE svg PUBLIC "-//W3C//DTD SVG 1.1//EN" "http://www.w3.org/Graphics/SVG/1.1/DTD/svg11.dtd">
<svg version="1.1" id="Layer_1" xmlns="http://www.w3.org/2000/svg" xmlns:xlink="http://www.w3.org/1999/xlink" x="0px" y="0px"
	 width="106px" height="106px" viewBox="0 0 106 106" enable-background="new 0 0 106 106" xml:space="preserve">
<path d="M53,1.977C24.82,1.977,1.977,24.821,1.977,53c0,28.18,22.844,51.023,51.023,51.023S104.023,81.18,104.023,53
	C104.023,24.821,81.18,1.977,53,1.977z M82.45,41.382c0.028,0.542,0.042,1.157,0.042,1.84c0,3.804-0.555,7.611-1.664,11.423
	c-1.108,3.812-2.802,7.46-5.08,10.945c-2.279,3.487-4.993,6.573-8.145,9.264c-3.149,2.691-6.937,4.837-11.357,6.437
	c-4.424,1.6-9.165,2.399-14.223,2.399c-7.892,0-15.162-2.132-21.805-6.393c1.179,0.13,2.31,0.195,3.393,0.195
	c6.595,0,12.483-2.03,17.668-6.092c-3.073-0.057-5.827-1.003-8.26-2.84c-2.432-1.837-4.106-4.183-5.021-7.039
	c0.904,0.172,1.797,0.257,2.679,0.257c1.269,0,2.516-0.165,3.744-0.496c-3.281-0.656-6.003-2.291-8.165-4.902
	c-2.163-2.61-3.244-5.624-3.244-9.041v-0.176c2.014,1.114,4.163,1.708,6.444,1.779c-1.943-1.296-3.484-2.985-4.623-5.068
	c-1.138-2.084-1.708-4.339-1.708-6.765c0-2.559,0.643-4.941,1.924-7.148c3.568,4.379,7.893,7.878,12.971,10.499
	c5.079,2.621,10.527,4.076,16.346,4.366c-0.249-1.035-0.372-2.114-0.372-3.239c0-3.924,1.388-7.276,4.167-10.056
	c2.778-2.777,6.13-4.167,10.056-4.167c4.11,0,7.573,1.498,10.388,4.489c3.215-0.636,6.225-1.788,9.03-3.455
	c-1.08,3.402-3.164,6.026-6.249,7.873c2.836-0.337,5.56-1.082,8.173-2.235C87.626,36.909,85.258,39.356,82.45,41.382z"/>
</svg>
